<?xml version="1.0" encoding="UTF-8"?>
<svg xmlns="http://www.w3.org/2000/svg" width="1920" height="1080" viewBox="0 0 1920 1080">
  <defs>
    <linearGradient id="sky" x1="0" y1="0" x2="0" y2="1">
      <stop offset="0" stop-color="#070a10"/>
      <stop offset="0.58" stop-color="#0b0f17"/>
      <stop offset="1" stop-color="#121824"/>
    </linearGradient>
    <radialGradient id="cyan-glow" cx="0" cy="0" r="1" gradientTransform="translate(345 300) rotate(27) scale(770 610)">
      <stop offset="0" stop-color="#5ce1e6" stop-opacity="0.18"/>
      <stop offset="0.55" stop-color="#287f91" stop-opacity="0.05"/>
      <stop offset="1" stop-color="#0b0f17" stop-opacity="0"/>
    </radialGradient>
    <radialGradient id="magenta-glow" cx="0" cy="0" r="1" gradientTransform="translate(1510 365) rotate(145) scale(570 500)">
      <stop offset="0" stop-color="#f05adf" stop-opacity="0.17"/>
      <stop offset="0.62" stop-color="#6c2c71" stop-opacity="0.04"/>
      <stop offset="1" stop-color="#0b0f17" stop-opacity="0"/>
    </radialGradient>
    <linearGradient id="sun" x1="0" y1="0" x2="0" y2="1">
      <stop offset="0" stop-color="#f05adf"/>
      <stop offset="0.48" stop-color="#b86ef4"/>
      <stop offset="1" stop-color="#5ce1e6"/>
    </linearGradient>
    <linearGradient id="horizon" x1="0" y1="0" x2="1" y2="0">
      <stop offset="0" stop-color="#5ce1e6" stop-opacity="0"/>
      <stop offset="0.28" stop-color="#5ce1e6" stop-opacity="0.8"/>
      <stop offset="0.7" stop-color="#f05adf" stop-opacity="0.75"/>
      <stop offset="1" stop-color="#f05adf" stop-opacity="0"/>
    </linearGradient>
    <filter id="soft-glow" x="-50%" y="-50%" width="200%" height="200%">
      <feGaussianBlur stdDeviation="18"/>
    </filter>
    <clipPath id="ground">
      <rect x="0" y="690" width="1920" height="390"/>
    </clipPath>
    <clipPath id="sun-clip">
      <circle cx="1450" cy="405" r="192"/>
    </clipPath>
  </defs>

  <rect width="1920" height="1080" fill="url(#sky)"/>
  <rect width="1920" height="1080" fill="url(#cyan-glow)"/>
  <rect width="1920" height="1080" fill="url(#magenta-glow)"/>

  <g fill="#dce7f2">
    <circle cx="130" cy="145" r="1.2" opacity="0.55"/>
    <circle cx="285" cy="95" r="0.9" opacity="0.4"/>
    <circle cx="462" cy="190" r="1.1" opacity="0.48"/>
    <circle cx="690" cy="120" r="0.8" opacity="0.35"/>
    <circle cx="865" cy="245" r="1.3" opacity="0.4"/>
    <circle cx="1040" cy="90" r="0.9" opacity="0.5"/>
    <circle cx="1230" cy="175" r="1.1" opacity="0.35"/>
    <circle cx="1685" cy="130" r="1" opacity="0.5"/>
    <circle cx="1810" cy="265" r="1.2" opacity="0.35"/>
  </g>

  <circle cx="1450" cy="405" r="210" fill="#f05adf" opacity="0.12" filter="url(#soft-glow)"/>
  <circle cx="1450" cy="405" r="192" fill="url(#sun)" opacity="0.82"/>
  <g clip-path="url(#sun-clip)" fill="#0b0f17">
    <rect x="1230" y="446" width="440" height="8" opacity="0.4"/>
    <rect x="1230" y="470" width="440" height="11" opacity="0.52"/>
    <rect x="1230" y="500" width="440" height="15" opacity="0.65"/>
    <rect x="1230" y="536" width="440" height="20" opacity="0.78"/>
  </g>

  <path d="M0 700 L170 635 L305 674 L475 588 L625 668 L790 610 L955 686 L1120 625 L1270 675 L1435 605 L1605 666 L1775 620 L1920 682 L1920 780 L0 780 Z" fill="#090d15"/>
  <path d="M0 704 L170 639 L305 678 L475 592 L625 672 L790 614 L955 690 L1120 629 L1270 679 L1435 609 L1605 670 L1775 624 L1920 686" fill="none" stroke="#2a3a50" stroke-width="2" opacity="0.75"/>

  <rect x="0" y="689" width="1920" height="2" fill="url(#horizon)"/>
  <rect x="0" y="691" width="1920" height="4" fill="url(#horizon)" opacity="0.25" filter="url(#soft-glow)"/>

  <g clip-path="url(#ground)" fill="none" stroke="#5ce1e6" opacity="0.2">
    <path d="M960 690 L-740 1080"/>
    <path d="M960 690 L-300 1080"/>
    <path d="M960 690 L80 1080"/>
    <path d="M960 690 L410 1080"/>
    <path d="M960 690 L700 1080"/>
    <path d="M960 690 L960 1080"/>
    <path d="M960 690 L1220 1080"/>
    <path d="M960 690 L1510 1080"/>
    <path d="M960 690 L1840 1080"/>
    <path d="M960 690 L2220 1080"/>
    <path d="M960 690 L2660 1080"/>
  </g>
  <g clip-path="url(#ground)" fill="none" stroke="#f05adf">
    <path d="M0 720 H1920" opacity="0.1"/>
    <path d="M0 755 H1920" opacity="0.12"/>
    <path d="M0 800 H1920" opacity="0.14"/>
    <path d="M0 858 H1920" opacity="0.16"/>
    <path d="M0 932 H1920" opacity="0.18"/>
    <path d="M0 1025 H1920" opacity="0.2"/>
  </g>

  <g fill="none" stroke-linecap="round" stroke-linejoin="round">
    <path d="M92 340 H260 L300 300 H470" stroke="#5ce1e6" stroke-width="2" opacity="0.3"/>
    <circle cx="92" cy="340" r="5" stroke="#5ce1e6" stroke-width="2" opacity="0.5"/>
    <circle cx="470" cy="300" r="5" stroke="#5ce1e6" stroke-width="2" opacity="0.5"/>
    <path d="M1650 760 H1770 L1810 720 H1885" stroke="#f05adf" stroke-width="2" opacity="0.25"/>
    <circle cx="1650" cy="760" r="5" stroke="#f05adf" stroke-width="2" opacity="0.45"/>
  </g>
</svg>
